<svg data-v-fde0c5aa="" xmlns="http://www.w3.org/2000/svg" viewBox="0 0 300 300" class="iconLeft"><!----><defs data-v-fde0c5aa=""><!----></defs><defs data-v-fde0c5aa=""><!----></defs><g data-v-fde0c5aa="" id="13d9e630-fdb8-4e4b-a5d7-ab08dbb1532c" fill="#215500" transform="matrix(2.500326903250172,0,0,2.500326903250172,83.95196747540986,126.85947362815557)"><path d="M2.34 14.35L3.05 10.78L5.24 10.78C7.45 10.78 9.03 9.34 9.03 7.20C9.03 5.54 7.90 4.58 5.95 4.58L2.27 4.58L0.31 14.35ZM3.93 6.37L6.03 6.37C6.65 6.37 6.93 6.71 6.93 7.13C6.93 7.28 6.86 7.55 6.78 7.97C6.64 8.65 6.13 8.99 5.50 8.99L3.42 8.99ZM12.14 14.52C14.32 14.52 15.93 12.56 15.93 9.90C15.93 7.97 14.80 6.83 13.01 6.83C10.82 6.83 9.21 8.79 9.21 11.45C9.21 13.38 10.35 14.52 12.14 14.52ZM12.21 12.94C11.52 12.94 11.16 12.47 11.16 11.77C11.16 11.59 11.19 11.42 11.20 11.34L11.47 10.02C11.68 8.97 12.19 8.41 12.94 8.41C13.62 8.41 13.99 8.88 13.99 9.58C13.99 9.76 13.96 9.93 13.94 10.01L13.68 11.33C13.47 12.38 12.95 12.94 12.21 12.94ZM18.52 14.35L19.29 10.49C19.53 9.30 20.15 8.90 21.39 8.90L21.88 8.90L22.27 7.00L21.92 7.00C20.79 7.00 20.03 8.04 19.73 8.83L19.63 8.83L19.99 7.00L18.03 7.00L16.56 14.35ZM25.86 14.35L26.17 12.78L24.82 12.78L25.66 8.57L27.15 8.57L27.47 7.00L25.98 7.00L26.38 5.01L24.56 5.01L24.30 6.26C24.21 6.76 24.08 7.00 23.48 7.00L22.99 7.00L22.68 8.57L23.72 8.57L22.96 12.36C22.92 12.57 22.90 12.82 22.90 12.96C22.90 13.89 23.49 14.35 24.63 14.35ZM28.63 7.00L27.72 11.55C27.65 11.93 27.59 12.25 27.59 12.61C27.59 13.82 28.22 14.52 29.33 14.52C30.45 14.52 31.15 13.79 31.70 12.64L31.78 12.64L31.74 12.85C31.72 12.92 31.70 13.12 31.70 13.27C31.70 13.96 32.23 14.35 32.93 14.35L34.23 14.35L34.54 12.78L33.71 12.78L34.87 7.00L32.91 7.00L32.16 10.78C32.05 11.34 31.81 11.82 31.49 12.21C31.16 12.60 30.79 12.88 30.31 12.88C29.83 12.88 29.62 12.59 29.62 12.11C29.62 11.90 29.67 11.63 29.72 11.37L30.59 7.00ZM42.70 6.37L43.06 4.58L35.88 4.58L35.52 6.37L38.09 6.37L36.50 14.35L38.53 14.35L40.12 6.37ZM43.76 14.35L44.53 10.49C44.77 9.30 45.39 8.90 46.63 8.90L47.12 8.90L47.52 7.00L47.17 7.00C46.03 7.00 45.28 8.04 44.97 8.83L44.87 8.83L45.23 7.00L43.27 7.00L41.80 14.35ZM54.38 14.35L54.68 12.78L53.86 12.78L55.02 7.00L53.06 7.00L52.81 8.27L52.74 8.27C52.64 7.48 51.93 6.83 50.90 6.83C49.03 6.83 47.49 8.85 47.49 11.97C47.49 13.44 48.08 14.52 49.45 14.52C50.60 14.52 51.27 13.83 51.84 12.64L51.93 12.64L51.88 12.85C51.87 12.92 51.84 13.12 51.84 13.27C51.84 13.96 52.37 14.35 53.07 14.35ZM50.41 12.91C49.84 12.91 49.49 12.52 49.49 11.86C49.49 11.63 49.53 11.26 49.57 11.06L49.77 10.08C49.99 8.97 50.51 8.44 51.38 8.44C52.19 8.44 52.67 8.97 52.53 9.66L52.30 10.78C52.19 11.33 51.94 11.86 51.63 12.24C51.34 12.60 50.92 12.91 50.41 12.91ZM58.65 14.52C60.05 14.52 61.12 13.83 61.77 12.47L60.27 11.77C59.86 12.47 59.57 12.94 58.81 12.94C58.04 12.94 57.71 12.47 57.71 11.79C57.71 11.59 57.74 11.40 57.78 11.20L58.03 9.95C58.24 8.92 58.73 8.41 59.56 8.41C60.27 8.41 60.48 8.79 60.65 9.37L62.30 8.74C62.12 7.59 61.07 6.83 59.67 6.83C57.44 6.83 55.76 8.72 55.76 11.34C55.76 13.62 57.05 14.52 58.65 14.52ZM62.44 14.35L64.40 14.35L64.79 12.36L65.90 11.33L66.51 13.24C66.75 13.99 67.21 14.35 67.90 14.35L68.95 14.35L69.29 12.78L68.43 12.78L67.42 9.98L70.41 7.00L68.12 7.00L66.36 8.82L65.35 10.08L65.25 10.08L66.47 3.99L64.51 3.99Z"></path></g><defs data-v-fde0c5aa=""><!----></defs><g data-v-fde0c5aa="" id="65f5a7dc-20ee-4e55-8f37-f48a09341f2b" stroke="none" fill="#8B2424" transform="matrix(0.39658836026723304,0,0,0.39658836026723304,40,130.2536669939531)"><path d="M0 0h7.506v99.58H0zM73.044 0H12.826v99.581h60.218v-.001C76.887 99.576 80 96.487 80 92.677V6.905C80 3.094 76.887.005 73.044 0zM53.055 66.335v1.262s-.223.228-1 .089l-4.357-1.484s-.826-.183-1.283-.135c-.457-.048-1.284.135-1.284.135l-4.357 1.484c-.775.139-1.001-.089-1.001-.089v-1.261c-.094-.317 4.912-4.825 4.912-4.825-1.135-6.935-1.364-14.904-1.364-14.904l-16.775 8.869.726-3.146L43.23 38.942c.499-9.016 1.632-11.713 1.632-11.713.458-.947 1.542-.903 1.542-.903H46.425s1.083-.044 1.54.903c0 0 1.135 2.697 1.631 11.713l15.959 13.387.727 3.146-16.774-8.869s-.228 7.97-1.362 14.904c0 .001 5.002 4.509 4.909 4.825z"></path></g><!----></svg>